<svg width="209" height="252" xmlns="http://www.w3.org/2000/svg" xmlns:xlink="http://www.w3.org/1999/xlink" overflow="hidden"><defs><clipPath id="clip0"><rect x="619" y="269" width="209" height="252"/></clipPath></defs><g clip-path="url(#clip0)" transform="translate(-619 -269)"><path d="M622 333 686.252 397.252" stroke="#000000" stroke-width="8.33333" stroke-miterlimit="8" fill="none" fill-rule="evenodd"/><path d="M679 276 781.047 378.047" stroke="#000000" stroke-width="8.33333" stroke-miterlimit="8" fill="none" fill-rule="evenodd"/><path d="M0 0 0.000104987 62.3622" stroke="#000000" stroke-width="8.33333" stroke-miterlimit="8" fill="none" fill-rule="evenodd" transform="matrix(1 0 0 -1 624 336.362)"/><path d="M0 0 0.000104987 62.3622" stroke="#000000" stroke-width="8.33333" stroke-miterlimit="8" fill="none" fill-rule="evenodd" transform="matrix(6.12323e-17 1 1 -6.12323e-17 620 277)"/><path d="M0 0 64.252 64.252" stroke="#000000" stroke-width="8.33333" stroke-miterlimit="8" fill="none" fill-rule="evenodd" transform="matrix(-1 0 0 1 824.252 333)"/><path d="M0 0 94.4882 94.4882" stroke="#000000" stroke-width="8.33333" stroke-miterlimit="8" fill="none" fill-rule="evenodd" transform="matrix(-1 0 0 1 767.488 276)"/><path d="M823 336.362 823 274" stroke="#000000" stroke-width="8.33333" stroke-miterlimit="8" fill="none" fill-rule="evenodd"/><path d="M826.362 277 764 277" stroke="#000000" stroke-width="8.33333" stroke-miterlimit="8" fill="none" fill-rule="evenodd"/><path d="M685 394 685 477.039" stroke="#000000" stroke-width="8.33333" stroke-miterlimit="8" fill="none" fill-rule="evenodd"/><path d="M761 394 761 477.039" stroke="#000000" stroke-width="8.33333" stroke-miterlimit="8" fill="none" fill-rule="evenodd"/><path d="M685 474 722.795 511.795" stroke="#000000" stroke-width="8.33333" stroke-miterlimit="8" fill="none" fill-rule="evenodd"/><path d="M0 0 49.1339 49.1339" stroke="#000000" stroke-width="8.33333" stroke-miterlimit="8" fill="none" fill-rule="evenodd" transform="matrix(-1 0 0 1 770.134 467)"/><path d="M675 367 775.913 467.913" stroke="#000000" stroke-width="8.33333" stroke-miterlimit="8" fill="none" fill-rule="evenodd"/></g></svg>